<svg width="1330" height="770" viewBox="0 0 1330 770" fill="none" xmlns="http://www.w3.org/2000/svg">
<circle cx="10" cy="240" r="10" fill="black" fill-opacity="0.03"/>
<circle cx="13" cy="151" r="13" fill="black" fill-opacity="0.03"/>
<circle cx="10" cy="56" r="10" fill="black" fill-opacity="0.03"/>
<circle cx="73" cy="240" r="10" fill="black" fill-opacity="0.03"/>
<circle cx="76" cy="151" r="13" fill="black" fill-opacity="0.03"/>
<circle cx="73" cy="56" r="10" fill="black" fill-opacity="0.03"/>
<circle cx="388" cy="240" r="10" fill="black" fill-opacity="0.03"/>
<circle cx="391" cy="151" r="13" fill="black" fill-opacity="0.03"/>
<circle cx="388" cy="56" r="10" fill="black" fill-opacity="0.03"/>
<circle cx="136" cy="240" r="10" fill="black" fill-opacity="0.03"/>
<circle cx="139" cy="151" r="13" fill="black" fill-opacity="0.03"/>
<circle cx="136" cy="56" r="10" fill="black" fill-opacity="0.03"/>
<circle cx="451" cy="240" r="10" fill="black" fill-opacity="0.03"/>
<circle cx="454" cy="151" r="13" fill="black" fill-opacity="0.03"/>
<circle cx="451" cy="56" r="10" fill="black" fill-opacity="0.03"/>
<circle cx="199" cy="240" r="10" fill="black" fill-opacity="0.03"/>
<circle cx="202" cy="151" r="13" fill="black" fill-opacity="0.03"/>
<circle cx="199" cy="56" r="10" fill="black" fill-opacity="0.03"/>
<circle cx="514" cy="240" r="10" fill="black" fill-opacity="0.03"/>
<circle cx="517" cy="151" r="13" fill="black" fill-opacity="0.03"/>
<circle cx="514" cy="56" r="10" fill="black" fill-opacity="0.03"/>
<circle cx="262" cy="240" r="10" fill="black" fill-opacity="0.03"/>
<circle cx="265" cy="151" r="13" fill="black" fill-opacity="0.03"/>
<circle cx="262" cy="56" r="10" fill="black" fill-opacity="0.03"/>
<circle cx="577" cy="240" r="10" fill="black" fill-opacity="0.03"/>
<circle cx="580" cy="151" r="13" fill="black" fill-opacity="0.03"/>
<circle cx="577" cy="56" r="10" fill="black" fill-opacity="0.03"/>
<circle cx="325" cy="240" r="10" fill="black" fill-opacity="0.03"/>
<circle cx="328" cy="151" r="13" fill="black" fill-opacity="0.03"/>
<circle cx="325" cy="56" r="10" fill="black" fill-opacity="0.03"/>
<circle cx="640" cy="240" r="10" fill="black" fill-opacity="0.03"/>
<circle cx="643" cy="151" r="13" fill="black" fill-opacity="0.03"/>
<circle cx="640" cy="56" r="10" fill="black" fill-opacity="0.03"/>
<circle cx="291" cy="197" r="13" fill="black" fill-opacity="0.03"/>
<circle cx="291" cy="105" r="13" fill="black" fill-opacity="0.03"/>
<circle cx="288" cy="10" r="10" fill="black" fill-opacity="0.03"/>
<circle cx="606" cy="197" r="13" fill="black" fill-opacity="0.03"/>
<circle cx="606" cy="105" r="13" fill="black" fill-opacity="0.03"/>
<circle cx="603" cy="10" r="10" fill="black" fill-opacity="0.03"/>
<circle cx="228" cy="197" r="13" fill="black" fill-opacity="0.03"/>
<circle cx="228" cy="105" r="13" fill="black" fill-opacity="0.03"/>
<circle cx="225" cy="10" r="10" fill="black" fill-opacity="0.03"/>
<circle cx="543" cy="197" r="13" fill="black" fill-opacity="0.03"/>
<circle cx="543" cy="105" r="13" fill="black" fill-opacity="0.03"/>
<circle cx="540" cy="10" r="10" fill="black" fill-opacity="0.03"/>
<circle cx="165" cy="197" r="13" fill="black" fill-opacity="0.03"/>
<circle cx="165" cy="105" r="13" fill="black" fill-opacity="0.03"/>
<circle cx="162" cy="10" r="10" fill="black" fill-opacity="0.03"/>
<circle cx="480" cy="197" r="13" fill="black" fill-opacity="0.03"/>
<circle cx="480" cy="105" r="13" fill="black" fill-opacity="0.03"/>
<circle cx="477" cy="10" r="10" fill="black" fill-opacity="0.03"/>
<circle cx="102" cy="197" r="13" fill="black" fill-opacity="0.03"/>
<circle cx="102" cy="105" r="13" fill="black" fill-opacity="0.03"/>
<circle cx="99" cy="10" r="10" fill="black" fill-opacity="0.03"/>
<circle cx="417" cy="197" r="13" fill="black" fill-opacity="0.03"/>
<circle cx="417" cy="105" r="13" fill="black" fill-opacity="0.03"/>
<circle cx="414" cy="10" r="10" fill="black" fill-opacity="0.03"/>
<circle cx="39" cy="197" r="13" fill="black" fill-opacity="0.03"/>
<circle cx="39" cy="105" r="13" fill="black" fill-opacity="0.03"/>
<circle cx="36" cy="10" r="10" fill="black" fill-opacity="0.03"/>
<circle cx="354" cy="197" r="13" fill="black" fill-opacity="0.03"/>
<circle cx="354" cy="105" r="13" fill="black" fill-opacity="0.03"/>
<circle cx="351" cy="10" r="10" fill="black" fill-opacity="0.03"/>
<circle cx="684" cy="240" r="10" fill="black" fill-opacity="0.03"/>
<circle cx="687" cy="151" r="13" fill="black" fill-opacity="0.03"/>
<circle cx="684" cy="56" r="10" fill="black" fill-opacity="0.03"/>
<circle cx="747" cy="240" r="10" fill="black" fill-opacity="0.03"/>
<circle cx="750" cy="151" r="13" fill="black" fill-opacity="0.03"/>
<circle cx="747" cy="56" r="10" fill="black" fill-opacity="0.03"/>
<circle cx="1062" cy="240" r="10" fill="black" fill-opacity="0.03"/>
<circle cx="1065" cy="151" r="13" fill="black" fill-opacity="0.03"/>
<circle cx="1062" cy="56" r="10" fill="black" fill-opacity="0.03"/>
<circle cx="810" cy="240" r="10" fill="black" fill-opacity="0.03"/>
<circle cx="813" cy="151" r="13" fill="black" fill-opacity="0.03"/>
<circle cx="810" cy="56" r="10" fill="black" fill-opacity="0.03"/>
<circle cx="1125" cy="240" r="10" fill="black" fill-opacity="0.03"/>
<circle cx="1128" cy="151" r="13" fill="black" fill-opacity="0.03"/>
<circle cx="1125" cy="56" r="10" fill="black" fill-opacity="0.03"/>
<circle cx="873" cy="240" r="10" fill="black" fill-opacity="0.03"/>
<circle cx="876" cy="151" r="13" fill="black" fill-opacity="0.03"/>
<circle cx="873" cy="56" r="10" fill="black" fill-opacity="0.03"/>
<circle cx="1188" cy="240" r="10" fill="black" fill-opacity="0.03"/>
<circle cx="1191" cy="151" r="13" fill="black" fill-opacity="0.03"/>
<circle cx="1188" cy="56" r="10" fill="black" fill-opacity="0.03"/>
<circle cx="936" cy="240" r="10" fill="black" fill-opacity="0.03"/>
<circle cx="939" cy="151" r="13" fill="black" fill-opacity="0.03"/>
<circle cx="936" cy="56" r="10" fill="black" fill-opacity="0.03"/>
<circle cx="1251" cy="240" r="10" fill="black" fill-opacity="0.03"/>
<circle cx="1254" cy="151" r="13" fill="black" fill-opacity="0.03"/>
<circle cx="1251" cy="56" r="10" fill="black" fill-opacity="0.03"/>
<circle cx="999" cy="240" r="10" fill="black" fill-opacity="0.03"/>
<circle cx="1002" cy="151" r="13" fill="black" fill-opacity="0.03"/>
<circle cx="999" cy="56" r="10" fill="black" fill-opacity="0.03"/>
<circle cx="1314" cy="240" r="10" fill="black" fill-opacity="0.03"/>
<circle cx="1317" cy="151" r="13" fill="black" fill-opacity="0.03"/>
<circle cx="1314" cy="56" r="10" fill="black" fill-opacity="0.03"/>
<circle cx="965" cy="197" r="13" fill="black" fill-opacity="0.03"/>
<circle cx="965" cy="105" r="13" fill="black" fill-opacity="0.03"/>
<circle cx="962" cy="10" r="10" fill="black" fill-opacity="0.03"/>
<circle cx="1280" cy="197" r="13" fill="black" fill-opacity="0.03"/>
<circle cx="1280" cy="105" r="13" fill="black" fill-opacity="0.03"/>
<circle cx="1277" cy="10" r="10" fill="black" fill-opacity="0.03"/>
<circle cx="902" cy="197" r="13" fill="black" fill-opacity="0.03"/>
<circle cx="902" cy="105" r="13" fill="black" fill-opacity="0.03"/>
<circle cx="899" cy="10" r="10" fill="black" fill-opacity="0.03"/>
<circle cx="1217" cy="197" r="13" fill="black" fill-opacity="0.03"/>
<circle cx="1217" cy="105" r="13" fill="black" fill-opacity="0.03"/>
<circle cx="1214" cy="10" r="10" fill="black" fill-opacity="0.03"/>
<circle cx="839" cy="197" r="13" fill="black" fill-opacity="0.03"/>
<circle cx="839" cy="105" r="13" fill="black" fill-opacity="0.03"/>
<circle cx="836" cy="10" r="10" fill="black" fill-opacity="0.03"/>
<circle cx="1154" cy="197" r="13" fill="black" fill-opacity="0.03"/>
<circle cx="1154" cy="105" r="13" fill="black" fill-opacity="0.03"/>
<circle cx="1151" cy="10" r="10" fill="black" fill-opacity="0.03"/>
<circle cx="776" cy="197" r="13" fill="black" fill-opacity="0.03"/>
<circle cx="776" cy="105" r="13" fill="black" fill-opacity="0.03"/>
<circle cx="773" cy="10" r="10" fill="black" fill-opacity="0.03"/>
<circle cx="1091" cy="197" r="13" fill="black" fill-opacity="0.03"/>
<circle cx="1091" cy="105" r="13" fill="black" fill-opacity="0.03"/>
<circle cx="1088" cy="10" r="10" fill="black" fill-opacity="0.03"/>
<circle cx="713" cy="197" r="13" fill="black" fill-opacity="0.03"/>
<circle cx="713" cy="105" r="13" fill="black" fill-opacity="0.03"/>
<circle cx="710" cy="10" r="10" fill="black" fill-opacity="0.03"/>
<circle cx="1028" cy="197" r="13" fill="black" fill-opacity="0.03"/>
<circle cx="1028" cy="105" r="13" fill="black" fill-opacity="0.03"/>
<circle cx="1025" cy="10" r="10" fill="black" fill-opacity="0.03"/>
<circle cx="10" cy="760" r="10" fill="black" fill-opacity="0.03"/>
<circle cx="13" cy="671" r="13" fill="black" fill-opacity="0.03"/>
<circle cx="10" cy="576" r="10" fill="black" fill-opacity="0.03"/>
<circle cx="73" cy="760" r="10" fill="black" fill-opacity="0.03"/>
<circle cx="76" cy="671" r="13" fill="black" fill-opacity="0.03"/>
<circle cx="73" cy="576" r="10" fill="black" fill-opacity="0.03"/>
<circle cx="388" cy="760" r="10" fill="black" fill-opacity="0.03"/>
<circle cx="391" cy="671" r="13" fill="black" fill-opacity="0.03"/>
<circle cx="388" cy="576" r="10" fill="black" fill-opacity="0.03"/>
<circle cx="136" cy="760" r="10" fill="black" fill-opacity="0.03"/>
<circle cx="139" cy="671" r="13" fill="black" fill-opacity="0.03"/>
<circle cx="136" cy="576" r="10" fill="black" fill-opacity="0.03"/>
<circle cx="451" cy="760" r="10" fill="black" fill-opacity="0.03"/>
<circle cx="454" cy="671" r="13" fill="black" fill-opacity="0.03"/>
<circle cx="451" cy="576" r="10" fill="black" fill-opacity="0.03"/>
<circle cx="199" cy="760" r="10" fill="black" fill-opacity="0.03"/>
<circle cx="202" cy="671" r="13" fill="black" fill-opacity="0.03"/>
<circle cx="199" cy="576" r="10" fill="black" fill-opacity="0.03"/>
<circle cx="514" cy="760" r="10" fill="black" fill-opacity="0.03"/>
<circle cx="517" cy="671" r="13" fill="black" fill-opacity="0.03"/>
<circle cx="514" cy="576" r="10" fill="black" fill-opacity="0.03"/>
<circle cx="262" cy="760" r="10" fill="black" fill-opacity="0.03"/>
<circle cx="265" cy="671" r="13" fill="black" fill-opacity="0.03"/>
<circle cx="262" cy="576" r="10" fill="black" fill-opacity="0.03"/>
<circle cx="577" cy="760" r="10" fill="black" fill-opacity="0.03"/>
<circle cx="580" cy="671" r="13" fill="black" fill-opacity="0.03"/>
<circle cx="577" cy="576" r="10" fill="black" fill-opacity="0.03"/>
<circle cx="325" cy="760" r="10" fill="black" fill-opacity="0.03"/>
<circle cx="328" cy="671" r="13" fill="black" fill-opacity="0.03"/>
<circle cx="325" cy="576" r="10" fill="black" fill-opacity="0.03"/>
<circle cx="640" cy="760" r="10" fill="black" fill-opacity="0.03"/>
<circle cx="643" cy="671" r="13" fill="black" fill-opacity="0.03"/>
<circle cx="640" cy="576" r="10" fill="black" fill-opacity="0.03"/>
<circle cx="291" cy="717" r="13" fill="black" fill-opacity="0.03"/>
<circle cx="291" cy="625" r="13" fill="black" fill-opacity="0.03"/>
<circle cx="288" cy="530" r="10" fill="black" fill-opacity="0.03"/>
<circle cx="606" cy="717" r="13" fill="black" fill-opacity="0.03"/>
<circle cx="606" cy="625" r="13" fill="black" fill-opacity="0.03"/>
<circle cx="603" cy="530" r="10" fill="black" fill-opacity="0.03"/>
<circle cx="228" cy="717" r="13" fill="black" fill-opacity="0.03"/>
<circle cx="228" cy="625" r="13" fill="black" fill-opacity="0.03"/>
<circle cx="225" cy="530" r="10" fill="black" fill-opacity="0.03"/>
<circle cx="543" cy="717" r="13" fill="black" fill-opacity="0.03"/>
<circle cx="543" cy="625" r="13" fill="black" fill-opacity="0.03"/>
<circle cx="540" cy="530" r="10" fill="black" fill-opacity="0.03"/>
<circle cx="165" cy="717" r="13" fill="black" fill-opacity="0.03"/>
<circle cx="165" cy="625" r="13" fill="black" fill-opacity="0.03"/>
<circle cx="162" cy="530" r="10" fill="black" fill-opacity="0.03"/>
<circle cx="480" cy="717" r="13" fill="black" fill-opacity="0.03"/>
<circle cx="480" cy="625" r="13" fill="black" fill-opacity="0.03"/>
<circle cx="477" cy="530" r="10" fill="black" fill-opacity="0.03"/>
<circle cx="102" cy="717" r="13" fill="black" fill-opacity="0.03"/>
<circle cx="102" cy="625" r="13" fill="black" fill-opacity="0.03"/>
<circle cx="99" cy="530" r="10" fill="black" fill-opacity="0.03"/>
<circle cx="417" cy="717" r="13" fill="black" fill-opacity="0.03"/>
<circle cx="417" cy="625" r="13" fill="black" fill-opacity="0.03"/>
<circle cx="414" cy="530" r="10" fill="black" fill-opacity="0.03"/>
<circle cx="39" cy="717" r="13" fill="black" fill-opacity="0.03"/>
<circle cx="39" cy="625" r="13" fill="black" fill-opacity="0.03"/>
<circle cx="36" cy="530" r="10" fill="black" fill-opacity="0.03"/>
<circle cx="354" cy="717" r="13" fill="black" fill-opacity="0.03"/>
<circle cx="354" cy="625" r="13" fill="black" fill-opacity="0.03"/>
<circle cx="351" cy="530" r="10" fill="black" fill-opacity="0.03"/>
<circle cx="684" cy="760" r="10" fill="black" fill-opacity="0.03"/>
<circle cx="687" cy="671" r="13" fill="black" fill-opacity="0.03"/>
<circle cx="684" cy="576" r="10" fill="black" fill-opacity="0.03"/>
<circle cx="747" cy="760" r="10" fill="black" fill-opacity="0.03"/>
<circle cx="750" cy="671" r="13" fill="black" fill-opacity="0.03"/>
<circle cx="747" cy="576" r="10" fill="black" fill-opacity="0.03"/>
<circle cx="1062" cy="760" r="10" fill="black" fill-opacity="0.03"/>
<circle cx="1065" cy="671" r="13" fill="black" fill-opacity="0.03"/>
<circle cx="1062" cy="576" r="10" fill="black" fill-opacity="0.03"/>
<circle cx="810" cy="760" r="10" fill="black" fill-opacity="0.03"/>
<circle cx="813" cy="671" r="13" fill="black" fill-opacity="0.03"/>
<circle cx="810" cy="576" r="10" fill="black" fill-opacity="0.03"/>
<circle cx="1125" cy="760" r="10" fill="black" fill-opacity="0.03"/>
<circle cx="1128" cy="671" r="13" fill="black" fill-opacity="0.03"/>
<circle cx="1125" cy="576" r="10" fill="black" fill-opacity="0.03"/>
<circle cx="873" cy="760" r="10" fill="black" fill-opacity="0.03"/>
<circle cx="876" cy="671" r="13" fill="black" fill-opacity="0.03"/>
<circle cx="873" cy="576" r="10" fill="black" fill-opacity="0.03"/>
<circle cx="1188" cy="760" r="10" fill="black" fill-opacity="0.03"/>
<circle cx="1191" cy="671" r="13" fill="black" fill-opacity="0.03"/>
<circle cx="1188" cy="576" r="10" fill="black" fill-opacity="0.03"/>
<circle cx="936" cy="760" r="10" fill="black" fill-opacity="0.03"/>
<circle cx="939" cy="671" r="13" fill="black" fill-opacity="0.03"/>
<circle cx="936" cy="576" r="10" fill="black" fill-opacity="0.03"/>
<circle cx="1251" cy="760" r="10" fill="black" fill-opacity="0.03"/>
<circle cx="1254" cy="671" r="13" fill="black" fill-opacity="0.03"/>
<circle cx="1251" cy="576" r="10" fill="black" fill-opacity="0.03"/>
<circle cx="999" cy="760" r="10" fill="black" fill-opacity="0.03"/>
<circle cx="1002" cy="671" r="13" fill="black" fill-opacity="0.03"/>
<circle cx="999" cy="576" r="10" fill="black" fill-opacity="0.03"/>
<circle cx="1314" cy="760" r="10" fill="black" fill-opacity="0.03"/>
<circle cx="1317" cy="671" r="13" fill="black" fill-opacity="0.03"/>
<circle cx="1314" cy="576" r="10" fill="black" fill-opacity="0.03"/>
<circle cx="965" cy="717" r="13" fill="black" fill-opacity="0.03"/>
<circle cx="965" cy="625" r="13" fill="black" fill-opacity="0.03"/>
<circle cx="962" cy="530" r="10" fill="black" fill-opacity="0.03"/>
<circle cx="1280" cy="717" r="13" fill="black" fill-opacity="0.03"/>
<circle cx="1280" cy="625" r="13" fill="black" fill-opacity="0.03"/>
<circle cx="1277" cy="530" r="10" fill="black" fill-opacity="0.03"/>
<circle cx="902" cy="717" r="13" fill="black" fill-opacity="0.03"/>
<circle cx="902" cy="625" r="13" fill="black" fill-opacity="0.03"/>
<circle cx="899" cy="530" r="10" fill="black" fill-opacity="0.03"/>
<circle cx="1217" cy="717" r="13" fill="black" fill-opacity="0.03"/>
<circle cx="1217" cy="625" r="13" fill="black" fill-opacity="0.03"/>
<circle cx="1214" cy="530" r="10" fill="black" fill-opacity="0.03"/>
<circle cx="839" cy="717" r="13" fill="black" fill-opacity="0.03"/>
<circle cx="839" cy="625" r="13" fill="black" fill-opacity="0.03"/>
<circle cx="836" cy="530" r="10" fill="black" fill-opacity="0.03"/>
<circle cx="1154" cy="717" r="13" fill="black" fill-opacity="0.03"/>
<circle cx="1154" cy="625" r="13" fill="black" fill-opacity="0.03"/>
<circle cx="1151" cy="530" r="10" fill="black" fill-opacity="0.03"/>
<circle cx="776" cy="717" r="13" fill="black" fill-opacity="0.03"/>
<circle cx="776" cy="625" r="13" fill="black" fill-opacity="0.03"/>
<circle cx="773" cy="530" r="10" fill="black" fill-opacity="0.03"/>
<circle cx="1091" cy="717" r="13" fill="black" fill-opacity="0.03"/>
<circle cx="1091" cy="625" r="13" fill="black" fill-opacity="0.03"/>
<circle cx="1088" cy="530" r="10" fill="black" fill-opacity="0.03"/>
<circle cx="713" cy="717" r="13" fill="black" fill-opacity="0.03"/>
<circle cx="713" cy="625" r="13" fill="black" fill-opacity="0.03"/>
<circle cx="710" cy="530" r="10" fill="black" fill-opacity="0.03"/>
<circle cx="1028" cy="717" r="13" fill="black" fill-opacity="0.03"/>
<circle cx="1028" cy="625" r="13" fill="black" fill-opacity="0.03"/>
<circle cx="1025" cy="530" r="10" fill="black" fill-opacity="0.03"/>
<circle cx="10" cy="500" r="10" fill="black" fill-opacity="0.03"/>
<circle cx="13" cy="411" r="13" fill="black" fill-opacity="0.03"/>
<circle cx="10" cy="316" r="10" fill="black" fill-opacity="0.03"/>
<circle cx="73" cy="500" r="10" fill="black" fill-opacity="0.03"/>
<circle cx="76" cy="411" r="13" fill="black" fill-opacity="0.03"/>
<circle cx="73" cy="316" r="10" fill="black" fill-opacity="0.03"/>
<circle cx="388" cy="500" r="10" fill="black" fill-opacity="0.03"/>
<circle cx="391" cy="411" r="13" fill="black" fill-opacity="0.03"/>
<circle cx="388" cy="316" r="10" fill="black" fill-opacity="0.03"/>
<circle cx="136" cy="500" r="10" fill="black" fill-opacity="0.03"/>
<circle cx="139" cy="411" r="13" fill="black" fill-opacity="0.03"/>
<circle cx="136" cy="316" r="10" fill="black" fill-opacity="0.03"/>
<circle cx="451" cy="500" r="10" fill="black" fill-opacity="0.03"/>
<circle cx="454" cy="411" r="13" fill="black" fill-opacity="0.03"/>
<circle cx="451" cy="316" r="10" fill="black" fill-opacity="0.03"/>
<circle cx="199" cy="500" r="10" fill="black" fill-opacity="0.03"/>
<circle cx="202" cy="411" r="13" fill="black" fill-opacity="0.03"/>
<circle cx="199" cy="316" r="10" fill="black" fill-opacity="0.03"/>
<circle cx="514" cy="500" r="10" fill="black" fill-opacity="0.03"/>
<circle cx="517" cy="411" r="13" fill="black" fill-opacity="0.03"/>
<circle cx="514" cy="316" r="10" fill="black" fill-opacity="0.03"/>
<circle cx="262" cy="500" r="10" fill="black" fill-opacity="0.03"/>
<circle cx="265" cy="411" r="13" fill="black" fill-opacity="0.03"/>
<circle cx="262" cy="316" r="10" fill="black" fill-opacity="0.03"/>
<circle cx="577" cy="500" r="10" fill="black" fill-opacity="0.03"/>
<circle cx="580" cy="411" r="13" fill="black" fill-opacity="0.03"/>
<circle cx="577" cy="316" r="10" fill="black" fill-opacity="0.03"/>
<circle cx="325" cy="500" r="10" fill="black" fill-opacity="0.03"/>
<circle cx="328" cy="411" r="13" fill="black" fill-opacity="0.03"/>
<circle cx="325" cy="316" r="10" fill="black" fill-opacity="0.03"/>
<circle cx="640" cy="500" r="10" fill="black" fill-opacity="0.03"/>
<circle cx="643" cy="411" r="13" fill="black" fill-opacity="0.03"/>
<circle cx="640" cy="316" r="10" fill="black" fill-opacity="0.03"/>
<circle cx="291" cy="457" r="13" fill="black" fill-opacity="0.03"/>
<circle cx="291" cy="365" r="13" fill="black" fill-opacity="0.03"/>
<circle cx="288" cy="270" r="10" fill="black" fill-opacity="0.03"/>
<circle cx="606" cy="457" r="13" fill="black" fill-opacity="0.03"/>
<circle cx="606" cy="365" r="13" fill="black" fill-opacity="0.03"/>
<circle cx="603" cy="270" r="10" fill="black" fill-opacity="0.03"/>
<circle cx="228" cy="457" r="13" fill="black" fill-opacity="0.03"/>
<circle cx="228" cy="365" r="13" fill="black" fill-opacity="0.03"/>
<circle cx="225" cy="270" r="10" fill="black" fill-opacity="0.03"/>
<circle cx="543" cy="457" r="13" fill="black" fill-opacity="0.03"/>
<circle cx="543" cy="365" r="13" fill="black" fill-opacity="0.03"/>
<circle cx="540" cy="270" r="10" fill="black" fill-opacity="0.03"/>
<circle cx="165" cy="457" r="13" fill="black" fill-opacity="0.03"/>
<circle cx="165" cy="365" r="13" fill="black" fill-opacity="0.03"/>
<circle cx="162" cy="270" r="10" fill="black" fill-opacity="0.03"/>
<circle cx="480" cy="457" r="13" fill="black" fill-opacity="0.03"/>
<circle cx="480" cy="365" r="13" fill="black" fill-opacity="0.03"/>
<circle cx="477" cy="270" r="10" fill="black" fill-opacity="0.03"/>
<circle cx="102" cy="457" r="13" fill="black" fill-opacity="0.03"/>
<circle cx="102" cy="365" r="13" fill="black" fill-opacity="0.03"/>
<circle cx="99" cy="270" r="10" fill="black" fill-opacity="0.03"/>
<circle cx="417" cy="457" r="13" fill="black" fill-opacity="0.03"/>
<circle cx="417" cy="365" r="13" fill="black" fill-opacity="0.03"/>
<circle cx="414" cy="270" r="10" fill="black" fill-opacity="0.03"/>
<circle cx="39" cy="457" r="13" fill="black" fill-opacity="0.03"/>
<circle cx="39" cy="365" r="13" fill="black" fill-opacity="0.03"/>
<circle cx="36" cy="270" r="10" fill="black" fill-opacity="0.03"/>
<circle cx="354" cy="457" r="13" fill="black" fill-opacity="0.03"/>
<circle cx="354" cy="365" r="13" fill="black" fill-opacity="0.03"/>
<circle cx="351" cy="270" r="10" fill="black" fill-opacity="0.03"/>
<circle cx="684" cy="500" r="10" fill="black" fill-opacity="0.03"/>
<circle cx="687" cy="411" r="13" fill="black" fill-opacity="0.03"/>
<circle cx="684" cy="316" r="10" fill="black" fill-opacity="0.03"/>
<circle cx="747" cy="500" r="10" fill="black" fill-opacity="0.03"/>
<circle cx="750" cy="411" r="13" fill="black" fill-opacity="0.03"/>
<circle cx="747" cy="316" r="10" fill="black" fill-opacity="0.03"/>
<circle cx="1062" cy="500" r="10" fill="black" fill-opacity="0.03"/>
<circle cx="1065" cy="411" r="13" fill="black" fill-opacity="0.03"/>
<circle cx="1062" cy="316" r="10" fill="black" fill-opacity="0.03"/>
<circle cx="810" cy="500" r="10" fill="black" fill-opacity="0.03"/>
<circle cx="813" cy="411" r="13" fill="black" fill-opacity="0.03"/>
<circle cx="810" cy="316" r="10" fill="black" fill-opacity="0.03"/>
<circle cx="1125" cy="500" r="10" fill="black" fill-opacity="0.03"/>
<circle cx="1128" cy="411" r="13" fill="black" fill-opacity="0.03"/>
<circle cx="1125" cy="316" r="10" fill="black" fill-opacity="0.03"/>
<circle cx="873" cy="500" r="10" fill="black" fill-opacity="0.03"/>
<circle cx="876" cy="411" r="13" fill="black" fill-opacity="0.03"/>
<circle cx="873" cy="316" r="10" fill="black" fill-opacity="0.03"/>
<circle cx="1188" cy="500" r="10" fill="black" fill-opacity="0.03"/>
<circle cx="1191" cy="411" r="13" fill="black" fill-opacity="0.03"/>
<circle cx="1188" cy="316" r="10" fill="black" fill-opacity="0.03"/>
<circle cx="936" cy="500" r="10" fill="black" fill-opacity="0.03"/>
<circle cx="939" cy="411" r="13" fill="black" fill-opacity="0.03"/>
<circle cx="936" cy="316" r="10" fill="black" fill-opacity="0.03"/>
<circle cx="1251" cy="500" r="10" fill="black" fill-opacity="0.03"/>
<circle cx="1254" cy="411" r="13" fill="black" fill-opacity="0.03"/>
<circle cx="1251" cy="316" r="10" fill="black" fill-opacity="0.03"/>
<circle cx="999" cy="500" r="10" fill="black" fill-opacity="0.03"/>
<circle cx="1002" cy="411" r="13" fill="black" fill-opacity="0.03"/>
<circle cx="999" cy="316" r="10" fill="black" fill-opacity="0.03"/>
<circle cx="1314" cy="500" r="10" fill="black" fill-opacity="0.03"/>
<circle cx="1317" cy="411" r="13" fill="black" fill-opacity="0.03"/>
<circle cx="1314" cy="316" r="10" fill="black" fill-opacity="0.03"/>
<circle cx="965" cy="457" r="13" fill="black" fill-opacity="0.03"/>
<circle cx="965" cy="365" r="13" fill="black" fill-opacity="0.03"/>
<circle cx="962" cy="270" r="10" fill="black" fill-opacity="0.03"/>
<circle cx="1280" cy="457" r="13" fill="black" fill-opacity="0.03"/>
<circle cx="1280" cy="365" r="13" fill="black" fill-opacity="0.03"/>
<circle cx="1277" cy="270" r="10" fill="black" fill-opacity="0.03"/>
<circle cx="902" cy="457" r="13" fill="black" fill-opacity="0.03"/>
<circle cx="902" cy="365" r="13" fill="black" fill-opacity="0.03"/>
<circle cx="899" cy="270" r="10" fill="black" fill-opacity="0.03"/>
<circle cx="1217" cy="457" r="13" fill="black" fill-opacity="0.03"/>
<circle cx="1217" cy="365" r="13" fill="black" fill-opacity="0.03"/>
<circle cx="1214" cy="270" r="10" fill="black" fill-opacity="0.03"/>
<circle cx="839" cy="457" r="13" fill="black" fill-opacity="0.03"/>
<circle cx="839" cy="365" r="13" fill="black" fill-opacity="0.03"/>
<circle cx="836" cy="270" r="10" fill="black" fill-opacity="0.03"/>
<circle cx="1154" cy="457" r="13" fill="black" fill-opacity="0.03"/>
<circle cx="1154" cy="365" r="13" fill="black" fill-opacity="0.03"/>
<circle cx="1151" cy="270" r="10" fill="black" fill-opacity="0.03"/>
<circle cx="776" cy="457" r="13" fill="black" fill-opacity="0.03"/>
<circle cx="776" cy="365" r="13" fill="black" fill-opacity="0.03"/>
<circle cx="773" cy="270" r="10" fill="black" fill-opacity="0.03"/>
<circle cx="1091" cy="457" r="13" fill="black" fill-opacity="0.03"/>
<circle cx="1091" cy="365" r="13" fill="black" fill-opacity="0.03"/>
<circle cx="1088" cy="270" r="10" fill="black" fill-opacity="0.03"/>
<circle cx="713" cy="457" r="13" fill="black" fill-opacity="0.03"/>
<circle cx="713" cy="365" r="13" fill="black" fill-opacity="0.03"/>
<circle cx="710" cy="270" r="10" fill="black" fill-opacity="0.03"/>
<circle cx="1028" cy="457" r="13" fill="black" fill-opacity="0.03"/>
<circle cx="1028" cy="365" r="13" fill="black" fill-opacity="0.03"/>
<circle cx="1025" cy="270" r="10" fill="black" fill-opacity="0.03"/>
</svg>
