<svg width="235" height="151" viewBox="0 0 235 151" fill="none" xmlns="http://www.w3.org/2000/svg">
<rect x="2" y="33" width="231" height="97" fill="white" stroke="#1400FF" stroke-width="4"/>
<path d="M49.472 118H16.256V110.448L38.336 82.928H16.896V75.504H49.472V82.48L27.264 110.448H49.472V118ZM88.512 118H81.152L80.96 113.776C78.912 117.36 74.048 119.472 68.224 119.472C56.448 119.472 48.96 108.528 48.96 96.688C48.96 84.144 56.128 74.096 69.888 74.096C80 74.096 87.808 80.112 88.448 88.624H79.488C79.04 84.656 74.752 81.456 69.888 81.456C62.784 81.456 58.048 86.96 58.048 97.072C58.048 104.048 61.568 111.984 69.824 111.984C75.648 111.984 80.192 107.568 80.192 102.256H70.784V95.152H88.512V118ZM126.029 118H117.069V98.928H100.493V118H91.597V75.504H100.493V91.504H117.069V75.504H126.029V118ZM149.256 82.864H137.8V94.192H148.936C153.672 94.192 155.464 91.824 155.464 88.56C155.464 85.232 153.672 82.864 149.256 82.864ZM162.632 118H153.928V107.056C153.928 102.96 152.392 101.36 147.272 101.36H137.8V118H129.16V75.504H150.728C158.6 75.504 163.784 80.752 163.784 87.792C163.784 92.336 161.544 96.176 157.448 97.648C161.224 98.864 162.632 100.976 162.632 105.968V118Z" fill="#1400FF"/>
<path d="M32.092 57.652H27.592C27.34 55.924 26.404 55.312 24.28 55.312C22.516 55.312 21.508 55.744 21.508 56.788C21.508 57.832 22.48 58.264 24.388 58.804C26.404 59.38 28.312 59.776 29.68 60.316C31.552 61.072 32.596 62.296 32.596 64.6C32.596 68.272 29.896 70.468 24.856 70.468C19.42 70.468 16.396 67.912 16.324 64.312H21.148C21.148 65.968 22.552 66.94 24.82 66.94C26.476 66.94 27.952 66.436 27.952 65.104C27.952 63.844 26.62 63.448 25.108 63.088C22.12 62.368 20.464 61.864 19.204 61.072C17.548 60.028 16.972 58.66 16.972 57.076C16.972 54.088 19.024 51.82 24.424 51.82C29.536 51.82 31.84 53.836 32.092 57.652ZM43.7495 62.944V58.336H48.1055V63.376C48.1055 67.12 45.9455 70.468 40.9415 70.468C35.7575 70.468 33.7055 67.156 33.7055 63.34V47.5H38.3135V52.288H48.1055V55.6H38.3135V62.872C38.3135 65.104 39.1055 66.4 41.0135 66.4C42.8855 66.4 43.7495 65.14 43.7495 62.944ZM65.966 70H61.538V67.516C60.314 69.532 58.478 70.468 56.03 70.468C52.502 70.468 50.018 67.84 50.018 63.952V52.288H54.698V63.232C54.698 65.464 55.706 66.544 57.686 66.544C60.062 66.544 61.322 64.852 61.322 62.512V52.288H65.966V70ZM76.406 66.652C78.638 66.652 80.366 64.564 80.366 61.576C80.366 57.724 79.034 55.816 76.442 55.816C73.706 55.816 72.41 57.652 72.41 61.288C72.41 64.456 74.066 66.652 76.406 66.652ZM84.794 70H80.294L80.258 67.84C79.142 69.64 77.486 70.468 75.326 70.468C70.862 70.468 67.658 66.94 67.658 60.964C67.658 55.6 70.358 51.82 74.93 51.82C77.126 51.82 78.854 52.72 80.186 54.592V45.808H84.794V70ZM91.6498 70H86.9698V52.288H91.6498V70ZM91.6498 50.164H86.9698V45.808H91.6498V50.164ZM102.5 66.544C105.344 66.544 106.784 64.744 106.784 61.144C106.784 57.544 105.344 55.78 102.5 55.78C99.6556 55.78 98.2156 57.544 98.2156 61.144C98.2156 64.744 99.6556 66.544 102.5 66.544ZM102.5 70.468C96.7756 70.468 93.3916 66.652 93.3916 61.144C93.3916 55.528 96.8836 51.82 102.5 51.82C108.044 51.82 111.5 55.492 111.5 61.144C111.5 66.76 108.008 70.468 102.5 70.468Z" fill="#231F20"/>
</svg>
