<svg width="203" height="151" viewBox="0 0 203 151" fill="none" xmlns="http://www.w3.org/2000/svg">
<path d="M33.472 118H0.256V110.448L22.336 82.928H0.896V75.504H33.472V82.48L11.264 110.448H33.472V118ZM72.512 118H65.152L64.96 113.776C62.912 117.36 58.048 119.472 52.224 119.472C40.448 119.472 32.96 108.528 32.96 96.688C32.96 84.144 40.128 74.096 53.888 74.096C64 74.096 71.808 80.112 72.448 88.624H63.488C63.04 84.656 58.752 81.456 53.888 81.456C46.784 81.456 42.048 86.96 42.048 97.072C42.048 104.048 45.568 111.984 53.824 111.984C59.648 111.984 64.192 107.568 64.192 102.256H54.784V95.152H72.512V118ZM110.029 118H101.069V98.928H84.493V118H75.597V75.504H84.493V91.504H101.069V75.504H110.029V118ZM133.256 82.864H121.8V94.192H132.936C137.672 94.192 139.464 91.824 139.464 88.56C139.464 85.232 137.672 82.864 133.256 82.864ZM146.632 118H137.928V107.056C137.928 102.96 136.392 101.36 131.272 101.36H121.8V118H113.16V75.504H134.728C142.6 75.504 147.784 80.752 147.784 87.792C147.784 92.336 145.544 96.176 141.448 97.648C145.224 98.864 146.632 100.976 146.632 105.968V118Z" fill="#1400FF"/>
<path d="M16.092 57.652H11.592C11.34 55.924 10.404 55.312 8.28 55.312C6.516 55.312 5.508 55.744 5.508 56.788C5.508 57.832 6.48 58.264 8.388 58.804C10.404 59.38 12.312 59.776 13.68 60.316C15.552 61.072 16.596 62.296 16.596 64.6C16.596 68.272 13.896 70.468 8.856 70.468C3.42 70.468 0.396 67.912 0.324 64.312H5.148C5.148 65.968 6.552 66.94 8.82 66.94C10.476 66.94 11.952 66.436 11.952 65.104C11.952 63.844 10.62 63.448 9.108 63.088C6.12 62.368 4.464 61.864 3.204 61.072C1.548 60.028 0.972 58.66 0.972 57.076C0.972 54.088 3.024 51.82 8.424 51.82C13.536 51.82 15.84 53.836 16.092 57.652ZM27.7495 62.944V58.336H32.1055V63.376C32.1055 67.12 29.9455 70.468 24.9415 70.468C19.7575 70.468 17.7055 67.156 17.7055 63.34V47.5H22.3135V52.288H32.1055V55.6H22.3135V62.872C22.3135 65.104 23.1055 66.4 25.0135 66.4C26.8855 66.4 27.7495 65.14 27.7495 62.944ZM49.966 70H45.538V67.516C44.314 69.532 42.478 70.468 40.03 70.468C36.502 70.468 34.018 67.84 34.018 63.952V52.288H38.698V63.232C38.698 65.464 39.706 66.544 41.686 66.544C44.062 66.544 45.322 64.852 45.322 62.512V52.288H49.966V70ZM60.406 66.652C62.638 66.652 64.366 64.564 64.366 61.576C64.366 57.724 63.034 55.816 60.442 55.816C57.706 55.816 56.41 57.652 56.41 61.288C56.41 64.456 58.066 66.652 60.406 66.652ZM68.794 70H64.294L64.258 67.84C63.142 69.64 61.486 70.468 59.326 70.468C54.862 70.468 51.658 66.94 51.658 60.964C51.658 55.6 54.358 51.82 58.93 51.82C61.126 51.82 62.854 52.72 64.186 54.592V45.808H68.794V70ZM75.6498 70H70.9698V52.288H75.6498V70ZM75.6498 50.164H70.9698V45.808H75.6498V50.164ZM86.4996 66.544C89.3436 66.544 90.7836 64.744 90.7836 61.144C90.7836 57.544 89.3436 55.78 86.4996 55.78C83.6556 55.78 82.2156 57.544 82.2156 61.144C82.2156 64.744 83.6556 66.544 86.4996 66.544ZM86.4996 70.468C80.7756 70.468 77.3916 66.652 77.3916 61.144C77.3916 55.528 80.8836 51.82 86.4996 51.82C92.0436 51.82 95.4996 55.492 95.4996 61.144C95.4996 66.76 92.0076 70.468 86.4996 70.468Z" fill="#231F20"/>
</svg>
